<!-- Bone by ProSymbols from the Noun Project (noun_Bone_797502.svg) -->

<svg xmlns="http://www.w3.org/2000/svg" xmlns:xlink="http://www.w3.org/1999/xlink" version="1.1" x="0px" y="0px" viewBox="0 0 20 25" enable-background="new 0 0 20 20" xml:space="preserve">
  <path d="M7.6,15.2l7.6-7.6c0.5-0.5,1.1-0.7,1.7-0.6c1,0.2,2.1-0.2,2.7-1.1c0.5-0.7,0.5-1.7,0.1-2.5  c-0.3-0.6-0.7-0.9-1.2-1.1c-0.4-0.1-0.6-0.4-0.8-0.8c-0.2-0.5-0.6-0.9-1.1-1.2c-0.8-0.4-1.7-0.4-2.5,0.1c-1,0.6-1.4,1.7-1.1,2.7  c0.1,0.6-0.1,1.3-0.6,1.7l-7.6,7.6C4.3,12.9,3.7,13.1,3,13c-1-0.2-2.1,0.2-2.7,1.1c-0.5,0.7-0.5,1.7-0.1,2.5  c0.3,0.6,0.7,0.9,1.2,1.1c0.4,0.1,0.6,0.4,0.8,0.8c0.2,0.5,0.6,0.9,1.1,1.2c0.8,0.4,1.7,0.4,2.5-0.1c1-0.6,1.4-1.7,1.1-2.7  C6.9,16.3,7.1,15.7,7.6,15.2z"/>
</svg>
