<!-- Dog by Maxim Kulikov from the Noun Project (noun_Dog_1609912.svg) -->

<svg xmlns="http://www.w3.org/2000/svg" xmlns:xlink="http://www.w3.org/1999/xlink" version="1.1" x="0px" y="0px" viewBox="0 0 100 125" style="enable-background:new 0 0 100 100;" xml:space="preserve">
    <g>
        <circle cx="35.679" cy="45.679" r="4.642"/>
        <circle cx="64.312" cy="45.679" r="4.642"/>
        <path d="M35.597,31.364c0.782-0.398,1.24-1.274,1.056-2.175c-0.323-1.586-0.847-3.155-1.559-4.67   c-2.057-4.338-8.996-10.133-13.022-11.658c-0.507-0.193-1.073-0.17-1.564,0.063s-0.867,0.654-1.04,1.17   c-0.463,1.377-0.815,3.21-0.991,5.161c-0.099,1.101,0.713,2.072,1.813,2.172c1.102,0.088,2.072-0.713,2.171-1.813   c0.061-0.675,0.146-1.336,0.251-1.955c3.252,2.003,7.479,5.859,8.765,8.569c0.365,0.776,0.661,1.572,0.901,2.375   c-2.286,1.307-4.358,2.846-6.182,4.616c-0.803-0.975-1.596-2.138-2.338-3.481c-0.805-1.469-1.311-3.56-1.463-6.044   c-0.067-1.103-1.002-1.942-2.119-1.874c-1.102,0.067-1.941,1.016-1.874,2.118c0.19,3.113,0.846,5.711,1.951,7.729   c1.377,2.49,2.876,4.484,4.458,5.926c0.383,0.349,0.866,0.521,1.347,0.521c0.543,0,1.084-0.22,1.479-0.652   c0.006-0.007,0.01-0.015,0.016-0.022l0.002,0.002c2.177-2.454,4.85-4.496,7.945-6.071L35.597,31.364z"/>
        <path d="M79.492,12.924c-0.49-0.232-1.056-0.256-1.564-0.063c-4.026,1.525-10.965,7.32-13.024,11.664   c-0.71,1.509-1.233,3.078-1.557,4.664c-0.184,0.901,0.275,1.777,1.056,2.175L64.4,31.371c3.095,1.575,5.769,3.617,7.945,6.071   l0.002-0.002c0.006,0.007,0.01,0.015,0.016,0.022c0.395,0.433,0.936,0.652,1.479,0.652c0.481,0,0.964-0.173,1.347-0.522   c1.458-1.329,2.85-3.133,4.138-5.36c0.553-0.956,0.226-2.18-0.73-2.732c-0.956-0.554-2.18-0.227-2.732,0.73   c-0.668,1.156-1.357,2.143-2.057,2.992c-1.825-1.771-3.898-3.312-6.185-4.619c0.24-0.803,0.536-1.597,0.899-2.369   c1.288-2.717,5.519-6.576,8.771-8.578c0.434,2.538,0.543,5.886-0.03,8.782c-0.214,1.083,0.49,2.136,1.574,2.35   c1.091,0.221,2.136-0.49,2.35-1.574c0.915-4.623,0.363-10.1-0.654-13.12C80.359,13.578,79.983,13.156,79.492,12.924z"/>
        <path d="M83.214,5.302c-3.471-1.62-19.028,4.358-23.785,14.372c-0.792,1.654-1.411,3.338-1.839,5.003   c-0.01,0.036-0.021,0.067-0.032,0.091c-2.281-0.484-4.653-0.735-7.06-0.767c-0.036-0.002-0.07-0.011-0.107-0.011   c-0.022,0-0.042,0.006-0.064,0.006c-0.107-0.001-0.214-0.008-0.321-0.008v0c-0.002,0-0.003,0-0.005,0s-0.003,0-0.005,0v0   c-2.579,0.001-5.12,0.263-7.551,0.779c-0.012-0.025-0.024-0.055-0.034-0.091c-0.429-1.665-1.048-3.349-1.837-4.999   C35.814,9.661,20.258,3.675,16.769,5.31c-3.458,1.656-8.64,17.492-3.857,27.539c1.653,3.465,3.958,6.53,6.665,8.865   c0.217,0.188,0.289,0.471,0.188,0.738c-1.085,2.853-1.659,5.987-1.659,9.067c0,9.231,5.241,17.676,14.06,22.804   c0.081,0.739,0.219,1.458,0.405,2.158c-1.249-2.425-3.768-4.069-6.689-4.069c-4.166,0-7.554,3.38-7.554,7.535   c0,1.34,0.36,2.627,1.021,3.757c-0.658,1.127-1.017,2.414-1.017,3.757c0,4.157,3.386,7.539,7.547,7.539   c3.415,0,6.285-2.228,7.216-5.338h33.823C67.847,92.772,70.717,95,74.133,95c4.161,0,7.546-3.382,7.546-7.539   c0-1.343-0.359-2.63-1.017-3.757c0.661-1.13,1.021-2.417,1.021-3.757c0-4.155-3.389-7.535-7.554-7.535   c-2.926,0-5.439,1.641-6.687,4.064c0.184-0.698,0.317-1.417,0.395-2.153c8.818-5.129,14.058-13.573,14.058-22.803   c0-3.08-0.574-6.215-1.659-9.067c-0.102-0.268-0.03-0.551,0.186-0.737c2.708-2.336,5.013-5.401,6.667-8.868   C91.871,22.802,86.689,6.966,83.214,5.302z M31.409,85.662c-1.079,0-1.963,0.856-1.999,1.935C29.347,89.505,27.795,91,25.877,91   c-1.956,0-3.547-1.588-3.547-3.539c0-0.909,0.325-1.729,0.94-2.374c0.025-0.026,0.042-0.056,0.065-0.083   c0.059-0.069,0.117-0.138,0.166-0.213c0.023-0.035,0.04-0.073,0.061-0.109c0.044-0.079,0.087-0.157,0.119-0.24   c0.015-0.038,0.024-0.077,0.037-0.115c0.028-0.085,0.053-0.169,0.07-0.256c0.007-0.038,0.009-0.077,0.014-0.116   c0.011-0.089,0.02-0.177,0.019-0.267c0-0.037-0.005-0.074-0.008-0.111c-0.006-0.091-0.014-0.181-0.032-0.27   c-0.007-0.036-0.019-0.071-0.029-0.106c-0.023-0.089-0.049-0.176-0.084-0.262c-0.015-0.036-0.034-0.069-0.051-0.104   c-0.04-0.082-0.082-0.163-0.134-0.24c-0.023-0.035-0.052-0.066-0.077-0.1c-0.043-0.056-0.081-0.116-0.131-0.168   c-0.62-0.65-0.948-1.473-0.948-2.379c0-1.949,1.594-3.535,3.554-3.535c1.888,0,3.42,1.456,3.519,3.285   c-0.04,0.666-0.261,1.302-0.654,1.844c-0.648,0.895-0.449,2.145,0.445,2.793c0.355,0.257,0.765,0.381,1.172,0.381   c0.619,0,1.229-0.286,1.621-0.826c0.475-0.656,0.827-1.378,1.068-2.137h2.166c1.29,1.624,2.914,2.963,4.78,3.909H31.409z    M68.602,81.753c1.08,0,1.965-0.857,1.999-1.938c0.06-1.908,1.609-3.403,3.527-3.403c1.96,0,3.554,1.586,3.554,3.535   c0,0.906-0.328,1.729-0.948,2.379c-0.052,0.054-0.091,0.116-0.135,0.174c-0.023,0.031-0.049,0.06-0.071,0.091   c-0.054,0.08-0.098,0.164-0.139,0.25c-0.015,0.031-0.033,0.062-0.046,0.094c-0.037,0.089-0.064,0.181-0.088,0.273   c-0.008,0.032-0.019,0.063-0.026,0.094c-0.019,0.094-0.028,0.188-0.034,0.284c-0.002,0.033-0.007,0.065-0.007,0.098   c-0.001,0.094,0.008,0.187,0.02,0.281c0.004,0.034,0.006,0.068,0.012,0.102c0.017,0.091,0.043,0.18,0.073,0.268   c0.011,0.035,0.02,0.069,0.033,0.104c0.034,0.086,0.078,0.169,0.124,0.25c0.019,0.033,0.034,0.067,0.055,0.099   c0.05,0.078,0.11,0.15,0.172,0.221c0.022,0.025,0.037,0.053,0.06,0.077c0.615,0.644,0.939,1.465,0.939,2.374   c0,1.951-1.591,3.539-3.546,3.539c-1.702,0-3.109-1.178-3.45-2.775c0.008-0.062,0.023-0.123,0.025-0.187   c0.023-0.701,0.252-1.372,0.664-1.939c0.648-0.895,0.449-2.145-0.445-2.793c-0.895-0.646-2.145-0.45-2.793,0.445   c-0.428,0.59-0.76,1.235-0.998,1.911h-7.128c1.87-0.947,3.496-2.287,4.786-3.909H68.602z M83.478,31.126   c-1.416,2.969-3.376,5.583-5.669,7.561c-1.479,1.277-2.005,3.362-1.311,5.188c0.914,2.403,1.397,5.047,1.397,7.646   c0,7.136-3.782,13.756-10.25,18.203c-0.029-0.173-0.06-0.35-0.094-0.53c-0.38-2.019-0.978-3.865-1.774-5.485   c-0.715-1.462-1.556-2.949-2.446-4.523c-2.176-3.85-4.642-8.212-5.507-12.904c-0.589-3.192-0.664-6.721-0.22-10.487   c0.129-1.097-0.655-2.091-1.752-2.22c-1.096-0.136-2.091,0.656-2.22,1.753c-0.49,4.163-0.403,8.094,0.259,11.68   c0.987,5.352,3.628,10.024,5.958,14.146c0.86,1.521,1.672,2.959,2.336,4.317c0.639,1.299,1.122,2.801,1.436,4.465   c0.251,1.333,0.318,2.386,0.318,2.757c0,0.096,0.001,0.198-0.008,0.36c-0.068,2.046-0.713,3.928-1.766,5.508   c-0.054,0.072-0.101,0.149-0.145,0.229c-1.907,2.706-5.06,4.454-8.64,4.454h-1.383v-4.994c1.153-0.405,2.242-1.165,3.15-2.286   l1.794-2.215c1.755-2.166,0.512-5.87-1.969-5.87H45.02c-2.481,0-3.724,3.704-1.969,5.87l1.794,2.215   c0.908,1.121,1.997,1.88,3.151,2.286v4.994h-1.375c-3.616,0-6.793-1.786-8.695-4.556c-0.016-0.025-0.031-0.051-0.048-0.076   c-1.081-1.604-1.743-3.527-1.813-5.626c-0.006-0.095-0.005-0.197-0.005-0.293c0-0.371,0.066-1.424,0.318-2.758   c0.314-1.664,0.796-3.166,1.438-4.468c0.661-1.354,1.473-2.789,2.332-4.309c0.691-1.223,1.405-2.486,2.1-3.809   c0.513-0.979,0.137-2.188-0.841-2.7c-0.977-0.515-2.186-0.138-2.701,0.841c-0.67,1.276-1.367,2.509-2.04,3.7   c-0.889,1.573-1.729,3.059-2.44,4.515c-0.798,1.622-1.396,3.469-1.777,5.488c-0.034,0.18-0.065,0.357-0.094,0.531   c-6.468-4.447-10.25-11.068-10.25-18.203c0-2.599,0.483-5.242,1.397-7.646c0.695-1.825,0.168-3.91-1.312-5.188   c-2.292-1.977-4.252-4.591-5.667-7.558c-3.759-7.897,0.367-19.975,2.003-22.134c2.709,0.094,14.686,4.511,18.437,12.404   c0.68,1.423,1.21,2.861,1.575,4.276c0.337,1.311,1.244,2.351,2.394,2.839c0.933,3.224,2.59,10.475,1.245,17.766   c-0.281,1.521-0.734,3.068-1.386,4.729c-0.403,1.028,0.103,2.188,1.131,2.592c0.24,0.095,0.487,0.14,0.73,0.14   c0.798,0,1.553-0.482,1.862-1.271c0.746-1.9,1.268-3.688,1.596-5.463c1.37-7.426-0.038-14.74-1.071-18.639   c1.1-0.168,2.218-0.282,3.351-0.336v1.938c0,1.104,0.896,2,2,2s2-0.896,2-2v-1.886c0.866,0.062,1.723,0.155,2.57,0.284   c-0.184,0.691-0.376,1.475-0.563,2.351c-0.231,1.08,0.457,2.144,1.537,2.375c0.141,0.03,0.282,0.044,0.42,0.044   c0.923,0,1.753-0.643,1.954-1.581c0.263-1.228,0.537-2.266,0.762-3.044c1.152-0.49,2.056-1.529,2.393-2.838   c0.365-1.415,0.895-2.854,1.577-4.28c3.749-7.891,15.726-12.307,18.434-12.4C83.11,11.153,87.236,23.23,83.478,31.126z"/>
    </g>
</svg>